<svg xmlns="http://www.w3.org/2000/svg" viewBox="0 0 900 1100" role="img" aria-label="Elegant warm minimal interior">
  <rect width="900" height="1100" fill="#fbf7f1"/>
  <rect x="90" y="70" width="720" height="500" rx="24" fill="#e5d2bd"/>
  <rect x="135" y="115" width="290" height="410" rx="12" fill="#fff9f2"/>
  <rect x="475" y="115" width="290" height="410" rx="12" fill="#d6b998"/>
  <rect x="0" y="690" width="900" height="410" fill="#e3cbb3"/>
  <rect x="190" y="535" width="520" height="140" rx="44" fill="#fff"/>
  <rect x="230" y="470" width="150" height="105" rx="26" fill="#f0e5da"/>
  <rect x="500" y="475" width="150" height="100" rx="26" fill="#f8efe7"/>
  <rect x="250" y="650" width="410" height="62" rx="25" fill="#c49a79"/>
  <rect x="235" y="745" width="430" height="170" rx="85" fill="#b58b66"/>
  <rect x="340" y="700" width="28" height="190" rx="14" fill="#8e6445"/>
  <rect x="540" y="700" width="28" height="190" rx="14" fill="#8e6445"/>
  <circle cx="690" cy="345" r="72" fill="#f8efe7"/>
  <rect x="120" y="730" width="80" height="250" rx="40" fill="#2e2924"/>
  <path d="M70 735h180l-35-115H105z" fill="#efe2d6"/>
</svg>
